<?xml version="1.0" encoding="UTF-8" standalone="no"?>
<!-- Created with Inkscape (http://www.inkscape.org/) -->

<svg
   viewBox="0 0 132.29166 264.58333"
   version="1.1"
   id="svg1"
   sodipodi:docname="c.svg"
   inkscape:version="1.4.3 (0d15f75, 2025-12-25)"
   xmlns:inkscape="http://www.inkscape.org/namespaces/inkscape"
   xmlns:sodipodi="http://sodipodi.sourceforge.net/DTD/sodipodi-0.dtd"
   xmlns="http://www.w3.org/2000/svg"
   xmlns:svg="http://www.w3.org/2000/svg">
  <sodipodi:namedview
     id="namedview1"
     pagecolor="#ffffff"
     bordercolor="#000000"
     borderopacity="0.25"
     inkscape:showpageshadow="2"
     inkscape:pageopacity="0.0"
     inkscape:pagecheckerboard="0"
     inkscape:deskcolor="#d1d1d1"
     inkscape:zoom="0.855"
     inkscape:cx="500"
     inkscape:cy="500"
     inkscape:window-width="1920"
     inkscape:window-height="1057"
     inkscape:window-x="-8"
     inkscape:window-y="-8"
     inkscape:window-maximized="1"
     inkscape:current-layer="svg1" />
  <defs
     id="defs1" />
  <g
     id="layer1"
     style="display:inline"
     transform="translate(-66.146349)">
    <path
       id="path28"
       style="baseline-shift:baseline;display:inline;overflow:visible;vector-effect:none;stroke-width:15.875;stroke-linejoin:round;stroke-dasharray:none;enable-background:accumulate;stop-color:#000000"
       d="m 66.146349,150.8125 v 15.875 h 31.3092 c -7.13182,8.15073 -11.46545,18.80493 -11.46545,30.4276 0,25.47792 20.823131,46.30105 46.301051,46.30105 25.47791,0 46.3026,-20.82313 46.3026,-46.30105 0,-11.62267 -4.33371,-22.27687 -11.46597,-30.4276 h 15.43472 v 37.04115 h 15.875 V 166.6875 158.75 150.8125 h -66.14635 z m 66.144801,15.875 c 16.89842,0 30.4276,13.52917 30.4276,30.4276 0,5.54554 -1.45717,10.72824 -4.01216,15.18873 l -41.60418,-41.60417 c 4.4605,-2.55499 9.6432,-4.01216 15.18874,-4.01216 z m -26.41441,15.23834 41.60366,41.60367 c -4.46087,2.55484 -9.64355,4.01164 -15.18925,4.01164 -16.89843,0 -30.42605,-13.52761 -30.42605,-30.42605 0,-5.5457 1.45679,-10.72839 4.01164,-15.18926 z" />
  </g>
</svg>
