<?xml version="1.0" encoding="UTF-8" standalone="no"?>
<!-- Created with Inkscape (http://www.inkscape.org/) -->

<svg
   viewBox="0 0 264.58333 264.58333"
   version="1.1"
   id="svg1"
   xmlns="http://www.w3.org/2000/svg"
   xmlns:svg="http://www.w3.org/2000/svg">
  <defs
     id="defs1" />
  <g
     id="layer1"
     style="display:inline">
    <path
       id="path2"
       style="display:inline;stroke-width:15.875;stroke-dasharray:none;baseline-shift:baseline;overflow:visible;vector-effect:none;stroke-linejoin:round;enable-background:accumulate;stop-color:#000000"
       d="M 132.29115 74.083849 C 106.81322 74.083849 85.990099 94.906961 85.990099 120.3849 C 85.990099 132.00757 90.323733 142.66177 97.455549 150.8125 L 82.021349 150.8125 L 82.021349 111.125 L 66.146349 111.125 L 66.146349 150.8125 L 66.146349 158.75 L 66.146349 166.6875 L 198.4375 166.6875 L 198.4375 150.8125 L 167.12778 150.8125 C 174.26004 142.66177 178.59375 132.00757 178.59375 120.3849 C 178.59375 94.906961 157.76907 74.083849 132.29115 74.083849 z M 132.29115 89.958849 C 149.18957 89.958849 162.71875 103.48644 162.71875 120.3849 C 162.71875 137.28335 149.18957 150.8125 132.29115 150.8125 C 115.39272 150.8125 101.8651 137.28335 101.8651 120.3849 C 101.8651 103.48644 115.39272 89.958849 132.29115 89.958849 z " />
  </g>
</svg>
